# xmcd CD database file
#
# Track frame offsets:
#	150
#	24095
#	54934
#	72880
#	94537
#	145101
#	171523
#	209812
#	238433
#	268010
#
# Disc length: 4565 seconds
#
# Revision: 0
# Processed by: cddbd v1.5.2PL0 Copyright (c) Steve Scherf et al.
# Submitted via: CDex 1.51
#
DISCID=9011d30a
DTITLE=Michel Petrucciani - Best of Dreyfus Jazz Recordings
DYEAR=2008
DGENRE=Jazz
TTITLE0=September Second
TTITLE1=Les Grelots
TTITLE2=Night And Day
TTITLE3=Brazilian Like
TTITLE4=Trilogy in Blois
TTITLE5=Why
TTITLE6=Take The A Train
TTITLE7=Michel's Blues
TTITLE8=Besame Mucho
TTITLE9=Looking Up
EXTD=YEAR: 2008
EXTT0=
EXTT1=
EXTT2=
EXTT3=
EXTT4=
EXTT5=
EXTT6=
EXTT7=
EXTT8=
EXTT9=
PLAYORDER=
